0
SECTION
2
HEADER
9
$INSUNITS
70
4
9
$ACADVER
1
AC1014
9
$HANDSEED
5
FFFF
0
ENDSEC
0
SECTION
2
TABLES
0
TABLE
2
VPORT
5
8
100
AcDbSymbolTable
0
ENDTAB
0
TABLE
2
LTYPE
5
5
100
AcDbSymbolTable
0
LTYPE
5
14
100
AcDbSymbolTableRecord
100
AcDbLinetypeTableRecord
2
BYBLOCK
70
0
0
LTYPE
5
15
100
AcDbSymbolTableRecord
100
AcDbLinetypeTableRecord
2
BYLAYER
70
0
0
ENDTAB
0
TABLE
2
LAYER
5
2
100
AcDbSymbolTable
70
2
0
LAYER
5
50
100
AcDbSymbolTableRecord
100
AcDbLayerTableRecord
2
0
70
0
6
CONTINUOUS
0
ENDTAB
0
TABLE
2
STYLE
5
3
100
AcDbSymbolTable
70
1
0
STYLE
5
11
100
AcDbSymbolTableRecord
100
AcDbTextStyleTableRecord
2
STANDARD
70
0
0
ENDTAB
0
TABLE
2
VIEW
5
6
100
AcDbSymbolTable
70
0
0
ENDTAB
0
TABLE
2
UCS
5
7
100
AcDbSymbolTable
70
0
0
ENDTAB
0
TABLE
2
APPID
5
9
100
AcDbSymbolTable
70
2
0
APPID
5
12
100
AcDbSymbolTableRecord
100
AcDbRegAppTableRecord
2
ACAD
70
0
0
ENDTAB
0
TABLE
2
DIMSTYLE
5
A
100
AcDbSymbolTable
70
1
0
ENDTAB
0
TABLE
2
BLOCK_RECORD
5
1
100
AcDbSymbolTable
70
1
0
BLOCK_RECORD
5
1F
100
AcDbSymbolTableRecord
100
AcDbBlockTableRecord
2
*MODEL_SPACE
0
BLOCK_RECORD
5
1B
100
AcDbSymbolTableRecord
100
AcDbBlockTableRecord
2
*PAPER_SPACE
0
ENDTAB
0
ENDSEC
0
SECTION
2
BLOCKS
0
BLOCK
5
20
100
AcDbEntity
100
AcDbBlockBegin
2
*MODEL_SPACE
0
ENDBLK
5
21
100
AcDbEntity
100
AcDbBlockEnd
0
BLOCK
5
1C
100
AcDbEntity
100
AcDbBlockBegin
2
*PAPER_SPACE
0
ENDBLK
5
1D
100
AcDbEntity
100
AcDbBlockEnd
0
ENDSEC
0
SECTION
2
ENTITIES
0
LWPOLYLINE
5
100
100
AcDbEntity
8
0
100
AcDbPolyline
90
8
70
1
43
0.0
10
112.99999999999997
20
-63.34761619547276
10
-113.00000000000004
20
-63.347616195472796
42
0.41421356237309503
10
-115.00000000000003
20
-65.347616195472796
10
-115
20
-231.3476161954728
42
0.41421356237309503
10
-113
20
-233.3476161954728
10
113
20
-233.34761619547277
42
0.41421356237309503
10
115
20
-231.34761619547277
10
114.99999999999997
20
-65.347616195472753
42
0.41421356237309503
0
LWPOLYLINE
5
101
100
AcDbEntity
8
0
100
AcDbPolyline
90
4
70
1
43
0.0
10
-32.499999999999929
20
-72.547616195472784
42
0.99999999999999989
10
-32.499999999999929
20
-69.147616195472793
10
-36.499999999999929
20
-69.147616195472793
42
0.99999999999999989
10
-36.499999999999929
20
-72.547616195472784
0
LWPOLYLINE
5
102
100
AcDbEntity
8
0
100
AcDbPolyline
90
4
70
1
43
0.0
10
-32.499999999999829
20
-108.09593900418037
42
0.99999999999999989
10
-32.499999999999829
20
-104.6959390041804
10
-36.499999999999829
20
-104.6959390041804
42
0.99999999999999989
10
-36.499999999999829
20
-108.09593900418038
0
LWPOLYLINE
5
103
100
AcDbEntity
8
0
100
AcDbPolyline
90
4
70
1
43
0.0
10
-32.499999999999822
20
-129.09593900418037
42
0.99999999999999989
10
-32.499999999999822
20
-125.69593900418039
10
-36.499999999999822
20
-125.6959390041804
42
0.99999999999999989
10
-36.499999999999822
20
-129.09593900418037
0
LWPOLYLINE
5
104
100
AcDbEntity
8
0
100
AcDbPolyline
90
4
70
1
43
0.0
10
-32.499999999999915
20
-150.04761619547278
42
0.99999999999999989
10
-32.499999999999915
20
-146.64761619547281
10
-36.499999999999915
20
-146.64761619547281
42
0.99999999999999989
10
-36.499999999999915
20
-150.04761619547278
0
LWPOLYLINE
5
105
100
AcDbEntity
8
0
100
AcDbPolyline
90
4
70
1
43
0.0
10
36.499999999999901
20
-213.04761619547278
42
0.99999999999999989
10
36.499999999999901
20
-209.64761619547278
10
32.499999999999901
20
-209.64761619547278
42
0.99999999999999989
10
32.499999999999901
20
-213.04761619547278
0
LWPOLYLINE
5
106
100
AcDbEntity
8
0
100
AcDbPolyline
90
4
70
1
43
0.0
10
-32.499999999999901
20
-213.04761619547278
42
0.99999999999999989
10
-32.499999999999901
20
-209.64761619547284
10
-36.499999999999901
20
-209.64761619547284
42
0.99999999999999989
10
-36.499999999999901
20
-213.04761619547278
0
LWPOLYLINE
5
107
100
AcDbEntity
8
0
100
AcDbPolyline
90
4
70
1
43
0.0
10
36.499999999999886
20
-150.04761619547276
42
0.99999999999999989
10
36.499999999999886
20
-146.64761619547278
10
32.499999999999886
20
-146.64761619547278
42
0.99999999999999989
10
32.499999999999886
20
-150.04761619547276
0
LWPOLYLINE
5
108
100
AcDbEntity
8
0
100
AcDbPolyline
90
4
70
1
43
0.0
10
36.499999999999872
20
-72.547616195472756
42
0.99999999999999989
10
36.499999999999872
20
-69.147616195472779
10
32.499999999999872
20
-69.147616195472779
42
0.99999999999999989
10
32.499999999999872
20
-72.54761619547277
0
CIRCLE
5
109
100
AcDbEntity
8
0
100
AcDbCircle
10
10.000000000000002
20
-211.34761619547277
30
7.6224336065208043e-06
40
1.7000000000000102
210
2.6517121044430255e-24
220
1.7399171459413972e-20
230
-1
0
CIRCLE
5
110
100
AcDbEntity
8
0
100
AcDbCircle
10
-9.9999999999999982
20
-211.34761619547277
30
7.6224336065208043e-06
40
1.7000000000000102
210
2.6517121044430255e-24
220
1.7399171459413972e-20
230
-1
0
ENDSEC
0
SECTION
2
OBJECTS
0
DICTIONARY
5
C
100
AcDbDictionary
3
ACAD_GROUP
350
D
3
ACAD_MLINESTYLE
350
17
0
DICTIONARY
5
D
100
AcDbDictionary
0
DICTIONARY
5
1A
330
C
100
AcDbDictionary
0
DICTIONARY
5
17
100
AcDbDictionary
0
ENDSEC
0
EOF
