0
SECTION
2
HEADER
9
$INSUNITS
70
4
9
$ACADVER
1
AC1014
9
$HANDSEED
5
FFFF
0
ENDSEC
0
SECTION
2
TABLES
0
TABLE
2
VPORT
5
8
100
AcDbSymbolTable
0
ENDTAB
0
TABLE
2
LTYPE
5
5
100
AcDbSymbolTable
0
LTYPE
5
14
100
AcDbSymbolTableRecord
100
AcDbLinetypeTableRecord
2
BYBLOCK
70
0
0
LTYPE
5
15
100
AcDbSymbolTableRecord
100
AcDbLinetypeTableRecord
2
BYLAYER
70
0
0
ENDTAB
0
TABLE
2
LAYER
5
2
100
AcDbSymbolTable
70
2
0
LAYER
5
50
100
AcDbSymbolTableRecord
100
AcDbLayerTableRecord
2
0
70
0
6
CONTINUOUS
0
ENDTAB
0
TABLE
2
STYLE
5
3
100
AcDbSymbolTable
70
1
0
STYLE
5
11
100
AcDbSymbolTableRecord
100
AcDbTextStyleTableRecord
2
STANDARD
70
0
0
ENDTAB
0
TABLE
2
VIEW
5
6
100
AcDbSymbolTable
70
0
0
ENDTAB
0
TABLE
2
UCS
5
7
100
AcDbSymbolTable
70
0
0
ENDTAB
0
TABLE
2
APPID
5
9
100
AcDbSymbolTable
70
2
0
APPID
5
12
100
AcDbSymbolTableRecord
100
AcDbRegAppTableRecord
2
ACAD
70
0
0
ENDTAB
0
TABLE
2
DIMSTYLE
5
A
100
AcDbSymbolTable
70
1
0
ENDTAB
0
TABLE
2
BLOCK_RECORD
5
1
100
AcDbSymbolTable
70
1
0
BLOCK_RECORD
5
1F
100
AcDbSymbolTableRecord
100
AcDbBlockTableRecord
2
*MODEL_SPACE
0
BLOCK_RECORD
5
1B
100
AcDbSymbolTableRecord
100
AcDbBlockTableRecord
2
*PAPER_SPACE
0
ENDTAB
0
ENDSEC
0
SECTION
2
BLOCKS
0
BLOCK
5
20
100
AcDbEntity
100
AcDbBlockBegin
2
*MODEL_SPACE
0
ENDBLK
5
21
100
AcDbEntity
100
AcDbBlockEnd
0
BLOCK
5
1C
100
AcDbEntity
100
AcDbBlockBegin
2
*PAPER_SPACE
0
ENDBLK
5
1D
100
AcDbEntity
100
AcDbBlockEnd
0
ENDSEC
0
SECTION
2
ENTITIES
0
LWPOLYLINE
5
100
100
AcDbEntity
8
0
100
AcDbPolyline
90
32
70
1
43
0.0
10
-5.0000000000000036
20
-194.99999618536208
42
0.41421356237309209
10
-6.999999999999984
20
-192.99999618536205
10
-59.000000000000014
20
-192.99999618536208
42
0.41421356237309503
10
-61.000000000000014
20
-194.99999618536208
10
-61.000000000000007
20
-205.74999618536208
42
0.41421356237309503
10
-59
20
-207.74999618536208
10
-58.000000000000007
20
-207.74999618536208
42
-0.99999999999999989
10
-58.000000000000007
20
-211.24999618536208
10
-59
20
-211.24999618536208
42
0.41421356237309503
10
-61.000000000000007
20
-213.24999618536208
10
-61
20
-227.99999618536208
42
0.41421356237309503
10
-58.999999999999993
20
-229.99999618536208
10
59.000000000000014
20
-229.99999618536205
42
0.41421356237309503
10
61.000000000000014
20
-227.99999618536205
10
61.000000000000007
20
-213.24999618536202
42
0.41421356237309503
10
59
20
-211.24999618536205
10
58.000000000000007
20
-211.24999618536205
42
-0.99999999999999989
10
58.000000000000007
20
-207.74999618536202
10
59
20
-207.74999618536202
42
0.41421356237309503
10
61.000000000000007
20
-205.74999618536202
10
61
20
-194.99999618536205
42
0.41421356237309503
10
58.999999999999993
20
-192.99999618536205
10
7.0000000000000062
20
-192.99999618536205
42
0.41421356237309631
10
4.9999999999999964
20
-194.99999618536208
10
4.9999999999999991
20
-204.49999618536208
42
0.4142135623730952
10
7.0000000000000009
20
-206.49999618536208
10
10
20
-206.49999618536208
42
-0.99999999999999989
10
10.000000000000004
20
-216.49999618536208
10
-9.9999999999999982
20
-216.49999618536208
42
-0.99999999999999989
10
-10
20
-206.49999618536208
10
-7.0000000000000009
20
-206.49999618536208
42
0.41421356237309492
10
-5.0000000000000009
20
-204.49999618536208
0
ENDSEC
0
SECTION
2
OBJECTS
0
DICTIONARY
5
C
100
AcDbDictionary
3
ACAD_GROUP
350
D
3
ACAD_MLINESTYLE
350
17
0
DICTIONARY
5
D
100
AcDbDictionary
0
DICTIONARY
5
1A
330
C
100
AcDbDictionary
0
DICTIONARY
5
17
100
AcDbDictionary
0
ENDSEC
0
EOF
