0
SECTION
2
HEADER
9
$INSUNITS
70
4
9
$ACADVER
1
AC1014
9
$HANDSEED
5
FFFF
0
ENDSEC
0
SECTION
2
TABLES
0
TABLE
2
VPORT
5
8
100
AcDbSymbolTable
0
ENDTAB
0
TABLE
2
LTYPE
5
5
100
AcDbSymbolTable
0
LTYPE
5
14
100
AcDbSymbolTableRecord
100
AcDbLinetypeTableRecord
2
BYBLOCK
70
0
0
LTYPE
5
15
100
AcDbSymbolTableRecord
100
AcDbLinetypeTableRecord
2
BYLAYER
70
0
0
ENDTAB
0
TABLE
2
LAYER
5
2
100
AcDbSymbolTable
70
2
0
LAYER
5
50
100
AcDbSymbolTableRecord
100
AcDbLayerTableRecord
2
0
70
0
6
CONTINUOUS
0
ENDTAB
0
TABLE
2
STYLE
5
3
100
AcDbSymbolTable
70
1
0
STYLE
5
11
100
AcDbSymbolTableRecord
100
AcDbTextStyleTableRecord
2
STANDARD
70
0
0
ENDTAB
0
TABLE
2
VIEW
5
6
100
AcDbSymbolTable
70
0
0
ENDTAB
0
TABLE
2
UCS
5
7
100
AcDbSymbolTable
70
0
0
ENDTAB
0
TABLE
2
APPID
5
9
100
AcDbSymbolTable
70
2
0
APPID
5
12
100
AcDbSymbolTableRecord
100
AcDbRegAppTableRecord
2
ACAD
70
0
0
ENDTAB
0
TABLE
2
DIMSTYLE
5
A
100
AcDbSymbolTable
70
1
0
ENDTAB
0
TABLE
2
BLOCK_RECORD
5
1
100
AcDbSymbolTable
70
1
0
BLOCK_RECORD
5
1F
100
AcDbSymbolTableRecord
100
AcDbBlockTableRecord
2
*MODEL_SPACE
0
BLOCK_RECORD
5
1B
100
AcDbSymbolTableRecord
100
AcDbBlockTableRecord
2
*PAPER_SPACE
0
ENDTAB
0
ENDSEC
0
SECTION
2
BLOCKS
0
BLOCK
5
20
100
AcDbEntity
100
AcDbBlockBegin
2
*MODEL_SPACE
0
ENDBLK
5
21
100
AcDbEntity
100
AcDbBlockEnd
0
BLOCK
5
1C
100
AcDbEntity
100
AcDbBlockBegin
2
*PAPER_SPACE
0
ENDBLK
5
1D
100
AcDbEntity
100
AcDbBlockEnd
0
ENDSEC
0
SECTION
2
ENTITIES
0
LWPOLYLINE
5
100
100
AcDbEntity
8
0
100
AcDbPolyline
90
28
70
1
43
0.0
10
-164.50000000000077
20
-140.35000000000002
10
-164.50000000000188
20
3.64999999999994
42
-0.41421356237309764
10
-162.50000000000188
20
5.6499999999999595
10
-159.00000000000188
20
5.6499999999999861
42
0.41421356237310542
10
-158.50000000000188
20
6.1499999999999932
10
-158.5000000000019
20
9.6499999999999897
42
-0.41421356237309764
10
-156.5000000000019
20
11.650000000000018
10
36.499999999998074
20
11.650000000001457
42
-0.41421356237309503
10
38.499999999998089
20
9.6500000000014818
10
38.499999999998103
20
6.1500000000014854
42
0.41421356237310542
10
38.999999999998145
20
5.650000000001496
10
42.499999999998124
20
5.6500000000015316
42
-0.41421356237309764
10
44.499999999998153
20
3.650000000001512
10
44.499999999999432
20
-158.34999999999843
42
-0.41421356237309243
10
42.499999999999424
20
-160.34999999999849
10
-14.500000000000579
20
-160.34999999999886
42
-0.41421356237309243
10
-16.500000000000583
20
-158.34999999999891
10
-16.50000000000075
20
-138.34999999999891
42
0.41421356237309764
10
-18.50000000000076
20
-136.34999999999891
10
-101.50000000000077
20
-136.34999999999957
42
0.41421356237308982
10
-103.50000000000077
20
-138.34999999999957
10
-103.50000000000058
20
-158.34999999999957
42
-0.41421356237310025
10
-105.50000000000057
20
-160.34999999999962
10
-147.50000000000057
20
-160.34999999999991
42
-0.41421356237310025
10
-149.5000000000006
20
-158.34999999999991
10
-149.50000000000074
20
-144.34999999999991
42
0.41421356237308982
10
-151.50000000000074
20
-142.34999999999994
10
-162.50000000000071
20
-142.35000000000005
42
-0.41421356237309243
0
CIRCLE
5
101
100
AcDbEntity
8
0
100
AcDbCircle
10
66.000000000000853
20
-119.84999999999931
30
6.6613381477509392e-15
40
1.7500000000000016
210
0
220
0
230
-1
0
CIRCLE
5
102
100
AcDbEntity
8
0
100
AcDbCircle
10
151.00000000000179
20
2.6500000000000501
30
6.6613381477509392e-15
40
1.7500000000000016
210
0
220
0
230
-1
0
CIRCLE
5
103
100
AcDbEntity
8
0
100
AcDbCircle
10
25.1503629630798
20
-96.206810028667007
30
-6.6613381477509392e-15
40
1.7000000000000004
210
0
220
0
230
1
0
CIRCLE
5
104
100
AcDbEntity
8
0
100
AcDbCircle
10
-39.584958427212513
20
-80.015845232049088
30
-6.6613381477509392e-15
40
1.6999999999999993
210
0
220
0
230
1
0
CIRCLE
5
105
100
AcDbEntity
8
0
100
AcDbCircle
10
-2.0849584272128752
20
-31.515845232048783
30
-6.6613381477509392e-15
40
1.7000000000000004
210
0
220
0
230
1
0
CIRCLE
5
106
100
AcDbEntity
8
0
100
AcDbCircle
10
-39.584958427212989
20
-17.815845232049057
30
-6.6613381477509392e-15
40
1.7000000000000004
210
0
220
0
230
1
0
CIRCLE
5
107
100
AcDbEntity
8
0
100
AcDbCircle
10
-4.584958427213115
20
0.38415476795121251
30
-6.6613381477509392e-15
40
1.7000000000000071
210
0
220
0
230
1
0
LWPOLYLINE
5
108
100
AcDbEntity
8
0
100
AcDbPolyline
90
28
70
1
43
0.0
10
-164.50000000000077
20
-140.35000000000002
10
-164.50000000000188
20
3.64999999999994
42
-0.41421356237309764
10
-162.50000000000188
20
5.6499999999999595
10
-159.00000000000188
20
5.6499999999999755
42
0.4142135623731048
10
-158.50000000000188
20
6.1499999999999932
10
-158.5000000000019
20
9.6499999999999915
42
-0.41421356237309731
10
-156.50000000000188
20
11.650000000000002
10
36.499999999998082
20
11.650000000001448
42
-0.41421356237309437
10
38.499999999998082
20
9.6500000000014818
10
38.49999999999811
20
6.1500000000014996
42
0.4142135623731113
10
38.999999999998145
20
5.6500000000015049
10
42.49999999999811
20
5.6500000000015405
42
-0.41421356237310153
10
44.499999999998167
20
3.6500000000015298
10
44.499999999999432
20
-158.34999999999843
42
-0.41421356237309503
10
42.499999999999424
20
-160.34999999999849
10
-14.500000000000581
20
-160.34999999999886
42
-0.41421356237309209
10
-16.500000000000579
20
-158.34999999999891
10
-16.500000000000746
20
-138.34999999999889
42
0.41421356237309082
10
-18.50000000000076
20
-136.34999999999894
10
-101.50000000000075
20
-136.3499999999996
42
0.41421356237310281
10
-103.50000000000074
20
-138.34999999999957
10
-103.50000000000058
20
-158.3499999999996
42
-0.41421356237309503
10
-105.50000000000055
20
-160.34999999999962
10
-147.5000000000006
20
-160.34999999999991
42
-0.41421356237309764
10
-149.5000000000006
20
-158.34999999999991
10
-149.50000000000074
20
-144.34999999999994
42
0.41421356237310542
10
-151.50000000000074
20
-142.34999999999994
10
-162.50000000000071
20
-142.35000000000005
42
-0.41421356237309243
0
CIRCLE
5
109
100
AcDbEntity
8
0
100
AcDbCircle
10
-66.000000000000853
20
-119.84999999999931
30
0
40
1.7500000000000016
210
0
220
-0
230
1
0
CIRCLE
5
110
100
AcDbEntity
8
0
100
AcDbCircle
10
-151.00000000000179
20
2.6500000000000501
30
0
40
1.7500000000000016
210
0
220
-0
230
1
0
CIRCLE
5
111
100
AcDbEntity
8
0
100
AcDbCircle
10
25.1503629630798
20
-96.206810028667007
30
0
40
1.7000000000000004
210
0
220
-0
230
1
0
CIRCLE
5
112
100
AcDbEntity
8
0
100
AcDbCircle
10
-39.584958427212513
20
-80.015845232049088
30
0
40
1.6999999999999993
210
0
220
-0
230
1
0
CIRCLE
5
113
100
AcDbEntity
8
0
100
AcDbCircle
10
-2.0849584272128752
20
-31.515845232048783
30
0
40
1.7000000000000004
210
0
220
-0
230
1
0
CIRCLE
5
114
100
AcDbEntity
8
0
100
AcDbCircle
10
-39.584958427212989
20
-17.815845232049057
30
0
40
1.7000000000000004
210
0
220
-0
230
1
0
CIRCLE
5
115
100
AcDbEntity
8
0
100
AcDbCircle
10
-4.584958427213115
20
0.38415476795121251
30
0
40
1.7000000000000071
210
0
220
-0
230
1
0
ENDSEC
0
SECTION
2
OBJECTS
0
DICTIONARY
5
C
100
AcDbDictionary
3
ACAD_GROUP
350
D
3
ACAD_MLINESTYLE
350
17
0
DICTIONARY
5
D
100
AcDbDictionary
0
DICTIONARY
5
1A
330
C
100
AcDbDictionary
0
DICTIONARY
5
17
100
AcDbDictionary
0
ENDSEC
0
EOF
